<svg width="104" height="31" viewBox="0 0 104 31" fill="none" xmlns="http://www.w3.org/2000/svg">
<path fill-rule="evenodd" clip-rule="evenodd" d="M13.9376 7.94339L20.6776 1.1947C15.0945 -0.798109 7.57246 -0.881067 0 5.55552V13.3237C0.369911 18.1325 3.66212 28.3421 13.8717 30.7095C17.879 30.3396 26.3007 26.3445 27.9283 13.3237V8.93658L13.9383 23.1262L4.0693 13.3236L7.05388 10.335L13.9383 16.7755L26.4194 4.27811C25.9444 3.91918 25.4244 3.56071 24.8633 3.21257L13.9376 14.2941V7.94339Z" fill="#DA3630"/>
<path d="M38.6948 24.0216C38.4464 24.0216 38.2477 23.9553 38.0986 23.8228C37.9661 23.6738 37.875 23.4916 37.8254 23.2763L34.8691 7.35216C34.8691 7.30248 34.8608 7.26107 34.8442 7.22795C34.8442 7.19483 34.8442 7.16998 34.8442 7.15342C34.8442 7.00437 34.8939 6.88015 34.9933 6.78078C35.1092 6.68141 35.2334 6.63173 35.3659 6.63173H37.5521C37.9661 6.63173 38.198 6.79734 38.2477 7.12858L40.3096 18.3823L42.5454 11.1034C42.5951 10.9709 42.6779 10.8384 42.7939 10.7059C42.9264 10.5569 43.1168 10.4823 43.3653 10.4823H44.7068C44.9717 10.4823 45.1622 10.5569 45.2781 10.7059C45.3941 10.8384 45.4686 10.9709 45.5017 11.1034L47.7624 18.3574L49.8243 7.12858C49.874 6.79734 50.1059 6.63173 50.5199 6.63173H52.7061C52.8386 6.63173 52.9545 6.68141 53.0539 6.78078C53.1532 6.88015 53.2029 7.00437 53.2029 7.15342C53.2029 7.16998 53.2029 7.19483 53.2029 7.22795C53.2029 7.26107 53.1946 7.30248 53.1781 7.35216L50.2218 23.2763C50.1887 23.4916 50.0976 23.6738 49.9485 23.8228C49.7995 23.9553 49.6007 24.0216 49.3523 24.0216H47.6879C47.4394 24.0216 47.2407 23.9553 47.0916 23.8228C46.9592 23.6903 46.8681 23.5495 46.8184 23.4005L44.036 15.1031L41.2536 23.4005C41.1874 23.5495 41.088 23.6903 40.9555 23.8228C40.823 23.9553 40.6243 24.0216 40.3593 24.0216H38.6948Z" fill="#DA3630"/>
<path d="M62.6082 24.27C61.1342 24.27 59.8672 24.0298 58.8073 23.5495C57.7473 23.0527 56.9192 22.2991 56.323 21.2889C55.7268 20.262 55.4038 18.9868 55.3541 17.4631C55.3376 16.751 55.3293 16.0471 55.3293 15.3515C55.3293 14.6559 55.3376 13.9437 55.3541 13.215C55.4038 11.7079 55.7351 10.4492 56.3478 9.43894C56.9606 8.42868 57.797 7.66684 58.857 7.15342C59.9335 6.64001 61.1839 6.3833 62.6082 6.3833C64.0325 6.3833 65.2829 6.64001 66.3594 7.15342C67.4359 7.66684 68.2806 8.42868 68.8934 9.43894C69.5061 10.4492 69.8374 11.7079 69.8871 13.215C69.9202 13.9437 69.9368 14.6559 69.9368 15.3515C69.9368 16.0471 69.9202 16.751 69.8871 17.4631C69.8374 18.9868 69.5144 20.262 68.9182 21.2889C68.322 22.2991 67.4856 23.0527 66.4091 23.5495C65.3492 24.0298 64.0822 24.27 62.6082 24.27ZM62.6082 21.4131C63.6847 21.4131 64.5625 21.0984 65.2415 20.4691C65.9205 19.8232 66.2849 18.7798 66.3346 17.3389C66.3677 16.6102 66.3843 15.9394 66.3843 15.3266C66.3843 14.6973 66.3677 14.0265 66.3346 13.3144C66.3015 12.3538 66.1193 11.5754 65.788 10.9792C65.4734 10.3664 65.0428 9.92751 64.4962 9.66253C63.9497 9.38098 63.3203 9.2402 62.6082 9.2402C61.9126 9.2402 61.2915 9.38098 60.745 9.66253C60.1985 9.92751 59.7596 10.3664 59.4283 10.9792C59.1137 11.5754 58.9398 12.3538 58.9066 13.3144C58.8901 14.0265 58.8818 14.6973 58.8818 15.3266C58.8818 15.9394 58.8901 16.6102 58.9066 17.3389C58.9563 18.7798 59.3207 19.8232 59.9997 20.4691C60.6787 21.0984 61.5482 21.4131 62.6082 21.4131Z" fill="#DA3630"/>
<path d="M73.7951 24.0216C73.6295 24.0216 73.4887 23.9636 73.3728 23.8477C73.2569 23.7317 73.1989 23.591 73.1989 23.4253V7.25279C73.1989 7.07061 73.2569 6.92156 73.3728 6.80563C73.4887 6.68969 73.6295 6.63173 73.7951 6.63173H80.2294C82.2333 6.63173 83.815 7.09546 84.9743 8.02291C86.1336 8.95037 86.7133 10.3002 86.7133 12.0723C86.7133 13.2978 86.4069 14.3164 85.7941 15.1279C85.1979 15.9394 84.3946 16.5274 83.3844 16.8917L87.0114 23.2266C87.0611 23.326 87.0859 23.4171 87.0859 23.4999C87.0859 23.6489 87.028 23.7731 86.912 23.8725C86.8126 23.9719 86.6967 24.0216 86.5642 24.0216H84.3035C84.022 24.0216 83.8067 23.947 83.6576 23.798C83.5086 23.6489 83.3926 23.4999 83.3098 23.3508L80.1051 17.4631H76.652V23.4253C76.652 23.591 76.5941 23.7317 76.4781 23.8477C76.3787 23.9636 76.238 24.0216 76.0558 24.0216H73.7951ZM76.652 14.6559H80.1548C81.1651 14.6559 81.9187 14.4323 82.4155 13.9851C82.9124 13.5214 83.1608 12.8755 83.1608 12.0474C83.1608 11.2193 82.9124 10.5734 82.4155 10.1097C81.9352 9.6294 81.1817 9.38926 80.1548 9.38926H76.652V14.6559Z" fill="#DA3630"/>
<path d="M88.9454 24.0216C88.7964 24.0216 88.6722 23.9719 88.5728 23.8725C88.4734 23.7731 88.4237 23.6489 88.4237 23.4999C88.4237 23.4502 88.432 23.4005 88.4486 23.3508C88.4651 23.3011 88.4817 23.2514 88.4983 23.2017L94.063 15.1527L88.8461 7.45153C88.7964 7.35216 88.7715 7.25279 88.7715 7.15342C88.7715 7.00437 88.8212 6.88015 88.9206 6.78078C89.02 6.68141 89.1359 6.63173 89.2684 6.63173H91.8272C92.0259 6.63173 92.1832 6.68141 92.2992 6.78078C92.4151 6.88015 92.5145 6.9878 92.5973 7.10374L96.2491 12.4697L99.9259 7.10374C99.9921 6.9878 100.083 6.88015 100.199 6.78078C100.332 6.68141 100.497 6.63173 100.696 6.63173H103.106C103.255 6.63173 103.379 6.68141 103.478 6.78078C103.578 6.88015 103.627 7.00437 103.627 7.15342C103.627 7.25279 103.594 7.35216 103.528 7.45153L98.3359 15.1527L103.901 23.2017C103.934 23.2514 103.959 23.3011 103.975 23.3508C103.992 23.4005 104 23.4502 104 23.4999C104 23.6489 103.942 23.7731 103.826 23.8725C103.727 23.9719 103.611 24.0216 103.478 24.0216H100.845C100.646 24.0216 100.489 23.9719 100.373 23.8725C100.257 23.7731 100.166 23.6738 100.1 23.5744L96.1249 17.96L92.2246 23.5744C92.1584 23.6738 92.0673 23.7731 91.9514 23.8725C91.8354 23.9719 91.6698 24.0216 91.4545 24.0216H88.9454Z" fill="#DA3630"/>
</svg>
