<svg width="160" height="48" viewBox="0 0 160 48" fill="none" xmlns="http://www.w3.org/2000/svg">
<path fill-rule="evenodd" clip-rule="evenodd" d="M21.4429 12.2208L31.8121 1.83815C23.2226 -1.22786 11.6501 -1.35565 0 8.54696V20.4979C0.569094 27.8962 5.63403 43.6032 21.341 47.2454C27.5062 46.6763 40.4626 40.5301 42.9666 20.4979V13.7484L21.4433 35.5789L6.26022 20.4979L10.8519 15.9001L21.4433 25.8085L40.6452 6.58164C39.9145 6.02954 39.1146 5.47814 38.2516 4.94263L21.4429 21.9912V12.2208Z" fill="white"/>
<path d="M59.5305 36.9566C59.1483 36.9566 58.8425 36.8547 58.6132 36.6508C58.4094 36.4215 58.2692 36.1412 58.1928 35.81L53.6447 11.3114C53.6447 11.2349 53.6319 11.1712 53.6064 11.1203C53.6064 11.0693 53.6064 11.0311 53.6064 11.0056C53.6064 10.7763 53.6829 10.5852 53.8358 10.4323C54.0141 10.2794 54.2052 10.203 54.4091 10.203H57.7724C58.4093 10.203 58.7661 10.4578 58.8425 10.9674L62.0147 28.2808L65.4545 17.0825C65.5309 16.8786 65.6583 16.6748 65.8367 16.471C66.0405 16.2417 66.3335 16.127 66.7157 16.127H68.7795C69.1872 16.127 69.4802 16.2417 69.6586 16.471C69.837 16.6748 69.9516 16.8786 70.0026 17.0825L73.4805 28.2425L76.6527 10.9674C76.7292 10.4578 77.0859 10.203 77.7229 10.203H81.0862C81.29 10.203 81.4684 10.2794 81.6213 10.4323C81.7741 10.5852 81.8506 10.7763 81.8506 11.0056C81.8506 11.0311 81.8506 11.0693 81.8506 11.1203C81.8506 11.1712 81.8378 11.2349 81.8124 11.3114L77.2643 35.81C77.2133 36.1412 77.0732 36.4215 76.8438 36.6508C76.6145 36.8547 76.3088 36.9566 75.9266 36.9566H73.3659C72.9837 36.9566 72.6779 36.8547 72.4486 36.6508C72.2448 36.447 72.1046 36.2304 72.0282 36.0011L67.7476 23.2358L63.467 36.0011C63.3651 36.2304 63.2123 36.447 63.0084 36.6508C62.8046 36.8547 62.4988 36.9566 62.0912 36.9566H59.5305Z" fill="white"/>
<path d="M96.3202 37.3388C94.0525 37.3388 92.1033 36.9693 90.4726 36.2304C88.8419 35.466 87.568 34.3067 86.6507 32.7524C85.7334 31.1727 85.2366 29.2108 85.1601 26.8667C85.1347 25.771 85.1219 24.6881 85.1219 23.618C85.1219 22.5479 85.1347 21.4522 85.1601 20.3311C85.2366 18.0125 85.7462 16.076 86.6889 14.5218C87.6317 12.9675 88.9184 11.7955 90.5491 11.0056C92.2052 10.2157 94.129 9.8208 96.3202 9.8208C98.5115 9.8208 100.435 10.2157 102.091 11.0056C103.748 11.7955 105.047 12.9675 105.99 14.5218C106.932 16.076 107.442 18.0125 107.518 20.3311C107.569 21.4522 107.595 22.5479 107.595 23.618C107.595 24.6881 107.569 25.771 107.518 26.8667C107.442 29.2108 106.945 31.1727 106.028 32.7524C105.111 34.3067 103.824 35.466 102.168 36.2304C100.537 36.9693 98.5879 37.3388 96.3202 37.3388ZM96.3202 32.9435C97.9764 32.9435 99.3268 32.4594 100.371 31.4912C101.416 30.4975 101.977 28.8923 102.053 26.6756C102.104 25.5545 102.13 24.5225 102.13 23.5798C102.13 22.6116 102.104 21.5796 102.053 20.484C102.002 19.0062 101.722 17.8087 101.212 16.8914C100.728 15.9486 100.066 15.2734 99.2249 14.8658C98.3841 14.4326 97.4158 14.216 96.3202 14.216C95.2501 14.216 94.2946 14.4326 93.4538 14.8658C92.6129 15.2734 91.9377 15.9486 91.4281 16.8914C90.944 17.8087 90.6765 19.0062 90.6255 20.484C90.6 21.5796 90.5873 22.6116 90.5873 23.5798C90.5873 24.5225 90.6 25.5545 90.6255 26.6756C90.702 28.8923 91.2625 30.4975 92.3072 31.4912C93.3518 32.4594 94.6895 32.9435 96.3202 32.9435Z" fill="white"/>
<path d="M113.531 36.9566C113.276 36.9566 113.06 36.8674 112.881 36.689C112.703 36.5107 112.614 36.2941 112.614 36.0393V11.1585C112.614 10.8782 112.703 10.6489 112.881 10.4705C113.06 10.2922 113.276 10.203 113.531 10.203H123.43C126.513 10.203 128.946 10.9164 130.73 12.3433C132.513 13.7701 133.405 15.8467 133.405 18.573C133.405 20.4585 132.934 22.0255 131.991 23.274C131.074 24.5225 129.838 25.4271 128.284 25.9876L133.864 35.7335C133.94 35.8864 133.978 36.0266 133.978 36.154C133.978 36.3833 133.889 36.5744 133.711 36.7273C133.558 36.8801 133.379 36.9566 133.176 36.9566H129.698C129.265 36.9566 128.933 36.8419 128.704 36.6126C128.475 36.3833 128.296 36.154 128.169 35.9246L123.239 26.8667H117.926V36.0393C117.926 36.2941 117.837 36.5107 117.659 36.689C117.506 36.8674 117.289 36.9566 117.009 36.9566H113.531ZM117.926 22.5479H123.315C124.869 22.5479 126.029 22.2039 126.793 21.5159C127.557 20.8025 127.94 19.8088 127.94 18.5348C127.94 17.2608 127.557 16.2671 126.793 15.5537C126.054 14.8148 124.895 14.4453 123.315 14.4453H117.926V22.5479Z" fill="white"/>
<path d="M136.839 36.9566C136.61 36.9566 136.419 36.8801 136.266 36.7273C136.113 36.5744 136.036 36.3833 136.036 36.154C136.036 36.0775 136.049 36.0011 136.075 35.9246C136.1 35.8482 136.126 35.7718 136.151 35.6953L144.712 23.3122L136.686 11.4642C136.61 11.3114 136.572 11.1585 136.572 11.0056C136.572 10.7763 136.648 10.5852 136.801 10.4323C136.954 10.2794 137.132 10.203 137.336 10.203H141.272C141.578 10.203 141.82 10.2794 141.999 10.4323C142.177 10.5852 142.33 10.7508 142.457 10.9292L148.076 19.1846L153.732 10.9292C153.834 10.7508 153.974 10.5852 154.152 10.4323C154.356 10.2794 154.611 10.203 154.917 10.203H158.624C158.853 10.203 159.045 10.2794 159.197 10.4323C159.35 10.5852 159.427 10.7763 159.427 11.0056C159.427 11.1585 159.376 11.3114 159.274 11.4642L151.286 23.3122L159.847 35.6953C159.898 35.7718 159.936 35.8482 159.962 35.9246C159.987 36.0011 160 36.0775 160 36.154C160 36.3833 159.911 36.5744 159.732 36.7273C159.58 36.8801 159.401 36.9566 159.197 36.9566H155.146C154.84 36.9566 154.598 36.8801 154.42 36.7273C154.242 36.5744 154.101 36.4215 154 36.2686L147.884 27.631L141.884 36.2686C141.782 36.4215 141.642 36.5744 141.464 36.7273C141.285 36.8801 141.03 36.9566 140.699 36.9566H136.839Z" fill="white"/>
</svg>
