<svg width="86" height="26" viewBox="0 0 86 26" fill="none" xmlns="http://www.w3.org/2000/svg">
<path fill-rule="evenodd" clip-rule="evenodd" d="M11.5256 6.87152L17.0991 1.29077C12.4823 -0.357239 6.262 -0.425958 0 4.89674V11.3204C0.305889 15.297 3.0283 23.7395 11.4708 25.6972C14.7846 25.3913 21.7487 22.0877 23.0946 11.3204V7.69272L11.5257 19.4267L3.36481 11.3206L5.83285 8.8493L11.5257 14.1751L21.847 3.84045C21.4542 3.54369 21.0242 3.2473 20.5604 2.95945L11.5256 12.1231V6.87152Z" fill="#DA3630"/>
<path d="M31.9976 20.1666C31.7922 20.1666 31.6279 20.1118 31.5046 20.0022C31.395 19.879 31.3197 19.7283 31.2786 19.5503L28.834 6.38223C28.834 6.34115 28.8272 6.30691 28.8135 6.27952C28.8135 6.25213 28.8135 6.23158 28.8135 6.21789C28.8135 6.09463 28.8546 5.99192 28.9367 5.90974C29.0326 5.82757 29.1353 5.78648 29.2449 5.78648H31.0527C31.395 5.78648 31.5868 5.92344 31.6279 6.19735L33.3329 15.5033L35.1818 9.48422C35.2229 9.37466 35.2914 9.2651 35.3872 9.15554C35.4968 9.03228 35.6543 8.97065 35.8597 8.97065H36.969C37.1882 8.97065 37.3457 9.03228 37.4415 9.15554C37.5374 9.2651 37.599 9.37466 37.6264 9.48422L39.4958 15.4828L41.2009 6.19735C41.242 5.92344 41.4337 5.78648 41.7761 5.78648H43.5839C43.6935 5.78648 43.7893 5.82757 43.8715 5.90974C43.9537 5.99192 43.9948 6.09463 43.9948 6.21789C43.9948 6.23158 43.9948 6.25213 43.9948 6.27952C43.9948 6.30691 43.9879 6.34115 43.9742 6.38223L41.5296 19.5503C41.5022 19.7283 41.4269 19.879 41.3036 20.0022C41.1804 20.1118 41.016 20.1666 40.8106 20.1666H39.4342C39.2288 20.1666 39.0644 20.1118 38.9412 20.0022C38.8316 19.8927 38.7563 19.7763 38.7152 19.653L36.4144 12.7916L34.1136 19.653C34.0588 19.7763 33.9766 19.8927 33.8671 20.0022C33.7575 20.1118 33.5931 20.1666 33.374 20.1666H31.9976Z" fill="black"/>
<path d="M51.7722 20.372C50.5533 20.372 49.5056 20.1734 48.6291 19.7763C47.7526 19.3654 47.0679 18.7423 46.5748 17.9069C46.0818 17.0577 45.8147 16.0032 45.7736 14.7432C45.76 14.1543 45.7531 13.5723 45.7531 12.9971C45.7531 12.4219 45.76 11.833 45.7736 11.2304C45.8147 9.9841 46.0886 8.94326 46.5954 8.10784C47.1021 7.27243 47.7937 6.64244 48.6702 6.21789C49.5604 5.79333 50.5944 5.58105 51.7722 5.58105C52.95 5.58105 53.984 5.79333 54.8742 6.21789C55.7644 6.64244 56.4629 7.27243 56.9696 8.10784C57.4763 8.94326 57.7502 9.9841 57.7913 11.2304C57.8187 11.833 57.8324 12.4219 57.8324 12.9971C57.8324 13.5723 57.8187 14.1543 57.7913 14.7432C57.7502 16.0032 57.4832 17.0577 56.9901 17.9069C56.4971 18.7423 55.8055 19.3654 54.9153 19.7763C54.0388 20.1734 52.9911 20.372 51.7722 20.372ZM51.7722 18.0096C52.6624 18.0096 53.3883 17.7494 53.9498 17.2289C54.5113 16.6948 54.8126 15.832 54.8537 14.6405C54.881 14.0379 54.8947 13.4833 54.8947 12.9765C54.8947 12.4561 54.881 11.9015 54.8537 11.3126C54.8263 10.5182 54.6756 9.87454 54.4017 9.38151C54.1415 8.87478 53.7854 8.51186 53.3335 8.29273C52.8815 8.05991 52.3611 7.9435 51.7722 7.9435C51.197 7.9435 50.6834 8.05991 50.2315 8.29273C49.7795 8.51186 49.4166 8.87478 49.1427 9.38151C48.8825 9.87454 48.7387 10.5182 48.7113 11.3126C48.6976 11.9015 48.6908 12.4561 48.6908 12.9765C48.6908 13.4833 48.6976 14.0379 48.7113 14.6405C48.7524 15.832 49.0537 16.6948 49.6152 17.2289C50.1767 17.7494 50.8957 18.0096 51.7722 18.0096Z" fill="black"/>
<path d="M61.023 20.1666C60.886 20.1666 60.7696 20.1187 60.6737 20.0228C60.5779 19.9269 60.5299 19.8105 60.5299 19.6736V6.30006C60.5299 6.14941 60.5779 6.02615 60.6737 5.93029C60.7696 5.83442 60.886 5.78648 61.023 5.78648H66.3436C68.0007 5.78648 69.3087 6.16995 70.2673 6.93689C71.226 7.70383 71.7053 8.82 71.7053 10.2854C71.7053 11.2989 71.452 12.1411 70.9452 12.8122C70.4522 13.4833 69.788 13.9694 68.9526 14.2707L71.9518 19.5092C71.9929 19.5914 72.0135 19.6667 72.0135 19.7352C72.0135 19.8584 71.9655 19.9612 71.8697 20.0433C71.7875 20.1255 71.6916 20.1666 71.5821 20.1666H69.7127C69.4798 20.1666 69.3018 20.105 69.1785 19.9817C69.0553 19.8584 68.9594 19.7352 68.8909 19.6119L66.2409 14.7432H63.3854V19.6736C63.3854 19.8105 63.3375 19.9269 63.2416 20.0228C63.1594 20.1187 63.043 20.1666 62.8924 20.1666H61.023ZM63.3854 12.4219H66.282C67.1174 12.4219 67.7405 12.237 68.1514 11.8672C68.5623 11.4837 68.7677 10.9496 68.7677 10.2649C68.7677 9.58009 68.5623 9.04597 68.1514 8.66251C67.7542 8.26534 67.1311 8.06676 66.282 8.06676H63.3854V12.4219Z" fill="black"/>
<path d="M73.5512 20.1666C73.4279 20.1666 73.3252 20.1255 73.243 20.0433C73.1608 19.9612 73.1198 19.8584 73.1198 19.7352C73.1198 19.6941 73.1266 19.653 73.1403 19.6119C73.154 19.5708 73.1677 19.5298 73.1814 19.4887L77.783 12.8327L73.469 6.4644C73.4279 6.38223 73.4074 6.30006 73.4074 6.21789C73.4074 6.09463 73.4484 5.99192 73.5306 5.90974C73.6128 5.82757 73.7086 5.78648 73.8182 5.78648H75.9341C76.0985 5.78648 76.2286 5.82757 76.3245 5.90974C76.4203 5.99192 76.5025 6.08093 76.571 6.1768L79.5908 10.6141L82.6312 6.1768C82.6859 6.08093 82.7613 5.99192 82.8571 5.90974C82.9667 5.82757 83.1036 5.78648 83.268 5.78648H85.2607C85.3839 5.78648 85.4866 5.82757 85.5688 5.90974C85.651 5.99192 85.6921 6.09463 85.6921 6.21789C85.6921 6.30006 85.6647 6.38223 85.6099 6.4644L81.3164 12.8327L85.918 19.4887C85.9454 19.5298 85.966 19.5708 85.9797 19.6119C85.9934 19.653 86.0002 19.6941 86.0002 19.7352C86.0002 19.8584 85.9523 19.9612 85.8564 20.0433C85.7742 20.1255 85.6784 20.1666 85.5688 20.1666H83.3913C83.2269 20.1666 83.0968 20.1255 83.0009 20.0433C82.9051 19.9612 82.8297 19.879 82.775 19.7968L79.4881 15.1541L76.2628 19.7968C76.208 19.879 76.1327 19.9612 76.0369 20.0433C75.941 20.1255 75.804 20.1666 75.626 20.1666H73.5512Z" fill="black"/>
</svg>
