<svg width="100" height="100" viewBox="0 0 100 100" fill="none" xmlns="http://www.w3.org/2000/svg">
<path d="M42.7253 10.0311L42.734 10.0235L42.7382 10.0204L42.7742 9.98944C45.258 7.85604 48.3315 7.5 50 7.5C50.4077 7.5 50.9083 7.51983 51.4703 7.58704L51.4722 7.58726C52.0421 7.65471 52.6659 7.76745 53.3199 7.95165L53.3205 7.95182C53.964 8.13274 54.6382 8.38728 55.3169 8.73193L55.3217 8.73433C55.3272 8.73714 55.3327 8.73996 55.3382 8.74278C55.667 8.91141 55.9952 9.10177 56.3202 9.31699L56.3216 9.31796C56.5763 9.48621 56.8437 9.69119 57.1337 9.92783C57.1983 9.9805 57.2624 10.0271 57.2899 10.0471L57.2973 10.0525C57.3076 10.06 57.3138 10.0646 57.3172 10.0671C57.3279 10.0761 57.3374 10.0839 57.3454 10.0903L57.3582 10.1013L57.3937 10.1282C58.1315 10.6885 59.8338 12.1908 62.1318 14.2499L62.1335 14.2515C62.3271 14.4244 62.4741 14.5534 62.6158 14.6776C62.7697 14.8126 62.9173 14.9421 63.1112 15.1162L63.5387 15.5H64.1133H78C78.2776 15.5 78.5 15.7224 78.5 16V27.9258V28.6019L79.0065 29.0496C84.1629 33.6077 88.7341 37.6717 90.9352 39.6303L77.5 50.0978V18V16.5H76H63.7188H63.5881L63.4595 16.5226C63.4023 16.5326 63.3438 16.5326 63.2866 16.5226L63.158 16.5H63.0273H36.9258H36.7452L36.5699 16.5428C36.4919 16.5619 36.4105 16.5619 36.3325 16.5428L36.1571 16.5H35.9766H24H22.5V18V50.0978L9.0644 39.63C11.2642 37.6723 15.8367 33.6081 20.9935 29.0496L21.5 28.6019V27.9258V16C21.5 15.7224 21.7224 15.5 22 15.5H35.7734H36.3311L36.7533 15.1357L36.9525 14.9639L36.9553 14.9615C37.4764 14.5097 37.9664 14.084 38.4246 13.6861C40.4885 11.8934 41.9046 10.6634 42.5991 10.1356L42.6035 10.1323C42.6228 10.1174 42.6381 10.105 42.644 10.1002L42.6629 10.0845L42.6872 10.0639L42.7253 10.0311ZM42.7516 10.0083L42.752 10.0081L42.754 10.0064C42.7542 10.0062 42.7533 10.0069 42.7516 10.0083ZM31.9788 29.4998L31.9894 29.5H32H68H68.0106L68.0212 29.4998C68.0875 29.4989 68.1533 29.5112 68.2148 29.5359C68.2763 29.5606 68.3323 29.5973 68.3795 29.6438C68.4267 29.6904 68.4642 29.7458 68.4897 29.8069C68.5153 29.8681 68.5285 29.9337 68.5285 30C68.5285 30.0663 68.5153 30.1319 68.4897 30.1931C68.4642 30.2542 68.4267 30.3096 68.3795 30.3562C68.3323 30.4027 68.2763 30.4394 68.2148 30.4641C68.1533 30.4888 68.0875 30.5011 68.0212 30.5002L68.0106 30.5H68H32H31.9894L31.9788 30.5002C31.9125 30.5011 31.8467 30.4888 31.7852 30.4641C31.7237 30.4394 31.6677 30.4027 31.6205 30.3562C31.5733 30.3097 31.5359 30.2542 31.5103 30.1931C31.4847 30.1319 31.4715 30.0663 31.4715 30C31.4715 29.9337 31.4847 29.8681 31.5103 29.8069C31.5359 29.7458 31.5733 29.6903 31.6205 29.6438C31.6677 29.5973 31.7237 29.5606 31.7852 29.5359C31.8467 29.5112 31.9125 29.4989 31.9788 29.4998ZM31.9788 39.4999L31.9894 39.5H32H54H54.0106L54.0212 39.4999C54.0875 39.4989 54.1533 39.5112 54.2148 39.5359C54.2763 39.5606 54.3323 39.5973 54.3795 39.6438C54.4267 39.6903 54.4641 39.7458 54.4897 39.8069C54.5153 39.8681 54.5285 39.9337 54.5285 40C54.5285 40.0663 54.5153 40.1319 54.4897 40.1931C54.4641 40.2542 54.4267 40.3097 54.3795 40.3562C54.3323 40.4027 54.2763 40.4394 54.2148 40.4641C54.1533 40.4888 54.0875 40.5011 54.0212 40.5001L54.0106 40.5H54H32H31.9894L31.9788 40.5001C31.9125 40.5011 31.8467 40.4888 31.7852 40.4641C31.7237 40.4394 31.6677 40.4027 31.6205 40.3562C31.5733 40.3097 31.5359 40.2542 31.5103 40.1931C31.4847 40.1319 31.4715 40.0663 31.4715 40C31.4715 39.9337 31.4847 39.8681 31.5103 39.8069C31.5359 39.7458 31.5733 39.6903 31.6205 39.6438C31.6677 39.5973 31.7237 39.5606 31.7852 39.5359C31.8467 39.5112 31.9125 39.4989 31.9788 39.4999ZM9.84625 86.2508L9.84679 86.2504L11.4459 85.0064C23.4094 75.6997 43.3159 60.214 45.0722 58.9155C47.3966 57.2164 49.6659 57.1445 50 57.1445C51.0137 57.1445 52.9859 57.3686 54.8124 58.8271C56.3762 60.0827 78.4179 77.4685 92.5 88.5525V92C92.5 92.2776 92.2776 92.5 92 92.5H8C7.72243 92.5 7.5 92.2776 7.5 92V88.0756C7.90565 87.7609 8.33339 87.428 8.78558 87.076C9.12503 86.8117 9.47825 86.5368 9.84625 86.2508ZM27.9526 63.3055C21.4667 68.3423 13.7154 74.3698 7.5 79.2039V47.343L27.9526 63.3055ZM92.5 79.6441C85.834 74.3944 78.1986 68.3748 71.9101 63.4128L92.5 47.343V79.6441Z" fill="#F8CA45" stroke="black" stroke-width="3"/>
</svg>
