<svg width="101" height="101" viewBox="0 0 101 101" fill="none" xmlns="http://www.w3.org/2000/svg">
<mask id="path-1-inside-1_1425_70443" fill="white">
<path fill-rule="evenodd" clip-rule="evenodd" d="M26.4704 78.6978L3.3245 55.552C1.69587 53.9234 1.69587 51.2848 3.3245 49.6561L11.7811 41.1995C13.4098 39.5709 16.0484 39.5709 17.677 41.1995L37.8749 61.3974L83.3229 15.9495C84.9515 14.3209 87.5901 14.3209 89.2187 15.9495L97.6754 24.4061C99.304 26.0348 99.304 28.6734 97.6754 30.302L49.2795 78.6979L40.8229 87.1545C39.2086 88.7688 36.6019 88.783 34.9702 87.197C34.9557 87.183 34.9413 87.1688 34.927 87.1545L26.4704 78.6978Z"/>
</mask>
<path fill-rule="evenodd" clip-rule="evenodd" d="M26.4704 78.6978L3.3245 55.552C1.69587 53.9234 1.69587 51.2848 3.3245 49.6561L11.7811 41.1995C13.4098 39.5709 16.0484 39.5709 17.677 41.1995L37.8749 61.3974L83.3229 15.9495C84.9515 14.3209 87.5901 14.3209 89.2187 15.9495L97.6754 24.4061C99.304 26.0348 99.304 28.6734 97.6754 30.302L49.2795 78.6979L40.8229 87.1545C39.2086 88.7688 36.6019 88.783 34.9702 87.197C34.9557 87.183 34.9413 87.1688 34.927 87.1545L26.4704 78.6978Z" fill="#F8CA45"/>
<path d="M26.4704 78.6978L28.5917 76.5765H28.5917L26.4704 78.6978ZM3.3245 55.552L1.20317 57.6733L1.20318 57.6733L3.3245 55.552ZM3.3245 49.6561L1.20318 47.5348H1.20317L3.3245 49.6561ZM11.7811 41.1995L9.65982 39.0782L9.65982 39.0782L11.7811 41.1995ZM17.677 41.1995L19.7983 39.0782H19.7983L17.677 41.1995ZM37.8749 61.3974L35.7536 63.5187L37.8749 65.6401L39.9963 63.5187L37.8749 61.3974ZM83.3229 15.9495L85.4442 18.0708V18.0708L83.3229 15.9495ZM89.2187 15.9495L87.0974 18.0708L89.2187 15.9495ZM97.6754 24.4061L99.7967 22.2848L97.6754 24.4061ZM97.6754 30.302L99.7967 32.4233V32.4233L97.6754 30.302ZM49.2795 78.6979L47.1582 76.5765L47.1582 76.5765L49.2795 78.6979ZM40.8229 87.1545L42.9442 89.2758L42.9442 89.2758L40.8229 87.1545ZM34.9702 87.197L37.0611 85.0457L37.0609 85.0456L34.9702 87.197ZM34.927 87.1545L37.0483 85.0332L34.927 87.1545ZM28.5917 76.5765L5.44581 53.4307L1.20318 57.6733L24.3491 80.8192L28.5917 76.5765ZM5.44582 53.4307C4.98876 52.9736 4.98876 52.2345 5.44582 51.7775L1.20317 47.5348C-1.59702 50.335 -1.59702 54.8731 1.20317 57.6733L5.44582 53.4307ZM5.44582 51.7775L13.9025 43.3208L9.65982 39.0782L1.20318 47.5348L5.44582 51.7775ZM13.9025 43.3208C14.3595 42.8638 15.0986 42.8638 15.5557 43.3208L19.7983 39.0782C16.9981 36.278 12.46 36.278 9.65982 39.0782L13.9025 43.3208ZM15.5557 43.3208L35.7536 63.5187L39.9963 59.2761L19.7983 39.0782L15.5557 43.3208ZM39.9963 63.5187L85.4442 18.0708L81.2015 13.8282L35.7536 59.2761L39.9963 63.5187ZM85.4442 18.0708C85.9012 17.6138 86.6404 17.6138 87.0974 18.0708L91.3401 13.8282C88.5399 11.028 84.0017 11.028 81.2015 13.8282L85.4442 18.0708ZM87.0974 18.0708L95.5541 26.5275L99.7967 22.2848L91.3401 13.8282L87.0974 18.0708ZM95.5541 26.5275C96.0111 26.9845 96.0111 27.7236 95.5541 28.1807L99.7967 32.4233C102.597 29.6231 102.597 25.085 99.7967 22.2848L95.5541 26.5275ZM95.5541 28.1807L47.1582 76.5765L51.4008 80.8192L99.7967 32.4233L95.5541 28.1807ZM47.1582 76.5765L38.7016 85.0332L42.9442 89.2758L51.4008 80.8192L47.1582 76.5765ZM38.7016 85.0332C38.2487 85.4861 37.5183 85.4901 37.0611 85.0457L32.8793 89.3483C35.6855 92.0759 40.1685 92.0516 42.9442 89.2758L38.7016 85.0332ZM37.0609 85.0456C37.057 85.0418 37.0529 85.0377 37.0483 85.0332L32.8057 89.2758C32.8298 89.2999 32.8544 89.3242 32.8794 89.3485L37.0609 85.0456ZM37.0483 85.0332L28.5917 76.5765L24.3491 80.8192L32.8057 89.2758L37.0483 85.0332Z" fill="black" mask="url(#path-1-inside-1_1425_70443)"/>
</svg>
