<svg width="13" height="18" viewBox="0 0 13 18" fill="none" xmlns="http://www.w3.org/2000/svg">
<path d="M1 17C2.37151 14.9136 2.80388 12.0558 3.14896 9.65172C3.35338 8.22763 3.2967 6.77945 3.2967 5.34589C3.2967 4.33184 3.35795 3.29283 3.22283 2.28411C3.21552 2.22949 2.90401 0.95227 2.84005 1.00138C2.70059 1.10847 2.77246 2.02249 2.75275 2.20031C2.70081 2.66891 2.69918 3.13594 2.66545 3.60551C2.56134 5.05438 2.57143 6.49832 2.57143 7.95002C2.57143 9.31388 2.54715 10.6677 2.84005 12.0109C3.04401 12.9462 3.4886 13.9544 3.53846 14.9115C3.5671 15.4613 3.86158 14.4806 3.92796 14.3443C4.84337 12.4644 5.03603 10.3497 5.94261 8.48502C6.4554 7.43032 6.54493 9.50207 6.56715 9.89666C6.60963 10.6509 6.77274 11.3956 6.89621 12.1398C6.97844 12.6355 6.93768 13.2434 7.11111 13.7191C7.23341 14.0544 7.3194 13.4963 7.33944 13.429C7.53765 12.7631 7.6877 12.1039 7.83639 11.4243C7.9979 10.6861 8.17323 9.94906 8.34676 9.2134C8.43082 8.85705 8.70324 9.57307 8.73626 9.64528C9.07947 10.3956 9.68856 11.3678 9.81746 12.1721C9.83771 12.2984 10.4801 11.0149 10.6099 10.7604C10.9114 10.169 11.0769 9.50614 11.221 8.86533C11.2469 8.75034 11.3372 8.18731 11.4493 8.63328C11.5853 9.17394 11.5423 9.74851 11.6642 10.2963C11.7833 10.8312 11.9293 11.3517 12 11.8949" stroke="#DA3630" stroke-width="2" stroke-linecap="round"/>
</svg>
