<svg width="134" height="134" viewBox="0 0 134 134" fill="none" xmlns="http://www.w3.org/2000/svg">
<circle cx="67" cy="66.8311" r="66.5" fill="#DA3630" fill-opacity="0.05"/>
<path fill-rule="evenodd" clip-rule="evenodd" d="M44.7493 55.6666L37.8414 60.6008L37.5508 60.194L44.4587 55.2598L44.7493 55.6666Z" fill="black"/>
<path fill-rule="evenodd" clip-rule="evenodd" d="M90.2507 55.6666L97.1586 60.6008L97.4492 60.194L90.5413 55.2598L90.2507 55.6666Z" fill="black"/>
<path d="M37.5 60.1992H97.5V98.4887H37.5V60.1992Z" fill="#F2F2F2"/>
<path fill-rule="evenodd" clip-rule="evenodd" d="M97 60.6992H38V97.9887H97V60.6992ZM37.5 60.1992V98.4887H97.5V60.1992H37.5Z" fill="black"/>
<path d="M44.6055 44.0674C44.6055 41.8582 46.3963 40.0674 48.6055 40.0674H86.3949C88.6041 40.0674 90.3949 41.8582 90.3949 44.0674V79.5411H44.6055V44.0674Z" fill="#FDF5F5"/>
<path fill-rule="evenodd" clip-rule="evenodd" d="M86.3949 40.5674H48.6055C46.6725 40.5674 45.1055 42.1344 45.1055 44.0674V79.0411H89.8949V44.0674C89.8949 42.1344 88.3279 40.5674 86.3949 40.5674ZM48.6055 40.0674C46.3963 40.0674 44.6055 41.8582 44.6055 44.0674V79.5411H90.3949V44.0674C90.3949 41.8582 88.6041 40.0674 86.3949 40.0674H48.6055Z" fill="black"/>
<path d="M68.684 79.9328L37.8945 60.5947V98.0947L68.684 79.9328Z" fill="#FCFCFC"/>
<path d="M37.8945 98.0943L97.1051 61.3838V98.0943H37.8945Z" fill="white"/>
<path fill-rule="evenodd" clip-rule="evenodd" d="M97.4354 61.3983L38.0275 98.3062L37.7637 97.8815L97.1716 60.9736L97.4354 61.3983Z" fill="black"/>
<path fill-rule="evenodd" clip-rule="evenodd" d="M67.5644 79.556L37.7617 60.806L38.028 60.3828L67.8306 79.1328L67.5644 79.556Z" fill="black"/>
<path d="M95.1322 42.2389C95.1322 46.0541 92.0394 49.1468 88.2243 49.1468C84.4092 49.1468 81.3164 46.0541 81.3164 42.2389C81.3164 38.4238 84.4092 35.3311 88.2243 35.3311C92.0394 35.3311 95.1322 38.4238 95.1322 42.2389Z" fill="#4CAF50"/>
<path d="M84.8858 42.7844C84.6587 42.5459 84.668 42.1684 84.9065 41.9413C85.145 41.7143 85.5225 41.7235 85.7496 41.962L87.6684 43.9775C87.8955 44.216 87.8863 44.5935 87.6478 44.8206C87.4092 45.0477 87.0318 45.0384 86.8047 44.7999L84.8858 42.7844Z" fill="white"/>
<path d="M91.1057 39.699C91.3386 39.4661 91.7161 39.4661 91.949 39.699C92.1819 39.9319 92.1819 40.3095 91.949 40.5423L87.7289 44.7624C87.4961 44.9953 87.1185 44.9953 86.8856 44.7624C86.6527 44.5295 86.6527 44.152 86.8856 43.9191L91.1057 39.699Z" fill="white"/>
<path d="M53.2891 50.7256H82.1049V53.094H53.2891V50.7256Z" fill="#F1A3A3"/>
<path d="M53.2891 58.6211H82.1049V60.9895H53.2891V58.6211Z" fill="#F1A3A3"/>
<path d="M53.2891 54.6738H82.1049V57.0422H53.2891V54.6738Z" fill="#F1A3A3"/>
<path d="M53.2891 62.5674H82.1049V64.9358H53.2891V62.5674Z" fill="#F1A3A3"/>
</svg>
