<svg width="452" height="302" viewBox="0 0 452 302" fill="none" xmlns="http://www.w3.org/2000/svg">
<path d="M448.491 229.034H400.967C404.438 214.887 406.279 200.102 406.279 184.889C406.279 154.648 399.005 126.105 386.111 100.903H419.815C421.754 100.903 423.324 99.3353 423.324 97.3993C423.324 95.4654 421.754 93.8958 419.815 93.8958H382.331C350.523 37.8346 290.231 0 221.087 0C175.097 0 133.025 16.7391 100.643 44.4453H43.6158C41.6787 44.4453 40.1065 46.0149 40.1065 47.9489C40.1065 49.8829 41.6787 51.4525 43.6158 51.4525H92.9026C88.9662 55.2223 85.1982 59.1643 81.6067 63.2645H3.50932C1.57217 63.2645 0 64.8321 0 66.7681C0 68.7041 1.57217 70.2717 3.50932 70.2717H75.7692C50.8029 101.78 35.8953 141.594 35.8953 184.889C35.8953 209.115 40.5657 232.255 49.0522 253.458H39.8057C37.8685 253.458 36.2964 255.026 36.2964 256.962C36.2964 258.898 37.8685 260.466 39.8057 260.466H52.0261C53.3035 263.307 54.6491 266.111 56.0628 268.874H14.5386C12.5995 268.874 11.0293 270.442 11.0293 272.378C11.0293 274.314 12.5995 275.881 14.5386 275.881H59.8409C64.1684 283.509 69.0232 290.801 74.3574 297.704H367.816C377.785 284.8 386.083 270.544 392.39 255.26H426.833C428.772 255.26 430.342 253.693 430.342 251.757C430.342 249.821 428.772 248.253 426.833 248.253H395.113C396.577 244.245 397.908 240.173 399.098 236.041H448.491C450.43 236.041 452 234.473 452 232.537C452 230.601 450.43 229.034 448.491 229.034Z" fill="#DA3630" fill-opacity="0.05"/>
<path d="M298.921 297.694H276.486C276.486 296.076 277.799 294.765 279.42 294.765H295.99C297.608 294.765 298.921 296.076 298.921 297.694Z" fill="#DA3630" fill-opacity="0.1"/>
<path d="M293.606 294.765H281.8L285.638 185.585L288.215 187.295L293.606 294.765Z" fill="#DA3630" fill-opacity="0.1"/>
<path d="M297.251 297.694H274.815C274.815 296.076 276.129 294.765 277.749 294.765H294.319C295.937 294.765 297.251 296.076 297.251 297.694Z" fill="#DA3630" fill-opacity="0.1"/>
<path d="M286.033 186.55L342.485 219.089L341.867 215.886C341.745 215.253 341.398 214.689 340.889 214.294L304.009 185.793C303.333 185.271 302.449 185.107 301.631 185.351L294.231 187.557C293.533 187.765 292.779 187.677 292.149 187.313L287.232 184.478L286.033 186.55Z" fill="#DA3630" fill-opacity="0.1"/>
<path d="M284.836 184.48L228.384 217.02L231.466 218.087C232.078 218.299 232.748 218.281 233.347 218.035L276.5 200.403C277.294 200.078 277.884 199.392 278.082 198.557L279.865 191.069C280.033 190.358 280.491 189.748 281.124 189.381L286.035 186.551L284.836 184.48Z" fill="#DA3630" fill-opacity="0.1"/>
<path d="M287.231 184.48V119.402L284.762 121.534C284.273 121.956 283.956 122.541 283.87 123.182L277.587 169.313C277.471 170.16 277.772 171.01 278.395 171.597L284.004 176.886C284.536 177.387 284.836 178.084 284.836 178.814V184.48H287.231Z" fill="#DA3630" fill-opacity="0.1"/>
<path d="M291.451 294.765H280.617L284.453 185.585H287.615L291.451 294.765Z" fill="#DA3630" fill-opacity="0.1"/>
<path d="M288.74 186.245C289.092 184.756 288.168 183.264 286.677 182.912C285.185 182.56 283.69 183.483 283.338 184.972C282.986 186.461 283.909 187.954 285.401 188.305C286.893 188.657 288.388 187.735 288.74 186.245Z" fill="#DA3630" fill-opacity="0.1"/>
<path d="M285.845 187.948C287.242 187.948 288.375 186.816 288.375 185.421C288.375 184.026 287.242 182.895 285.845 182.895C284.447 182.895 283.314 184.026 283.314 185.421C283.314 186.816 284.447 187.948 285.845 187.948Z" fill="#DA3630" fill-opacity="0.1"/>
<path d="M229.385 217.366L283.314 185.421L283.266 185.385L228.384 217.02L229.385 217.366Z" fill="#DA3630" fill-opacity="0.1"/>
<path d="M291.452 294.056H280.641V294.765H291.452V294.056Z" fill="#DA3630" fill-opacity="0.1"/>
<path d="M286.43 120.095L287.172 183.137L287.23 183.113V119.402L286.43 120.095Z" fill="#DA3630" fill-opacity="0.1"/>
<path d="M342.287 218.05L287.612 187.395L287.604 187.455L342.485 219.089L342.287 218.05Z" fill="#DA3630" fill-opacity="0.1"/>
<path d="M372.627 297.694H336.71C336.71 295.105 338.812 293.005 341.406 293.005H367.933C370.526 293.005 372.627 295.103 372.627 297.694Z" fill="#DA3630" fill-opacity="0.1"/>
<path d="M364.121 293.005H345.219L351.361 118.21L355.49 120.951L364.121 293.005Z" fill="#DA3630" fill-opacity="0.1"/>
<path d="M369.956 297.694H334.039C334.039 295.105 336.141 293.005 338.736 293.005H365.262C367.853 293.005 369.956 295.103 369.956 297.694Z" fill="#DA3630" fill-opacity="0.1"/>
<path d="M351.997 119.756L442.375 171.851L441.274 166.136C441.151 165.503 440.802 164.936 440.293 164.542L380.129 118.045C379.453 117.522 378.567 117.358 377.749 117.602L364.466 121.564C363.768 121.772 363.014 121.684 362.382 121.32L353.918 116.441L351.997 119.756Z" fill="#DA3630" fill-opacity="0.1"/>
<path d="M350.08 116.441L259.702 168.534L265.21 170.44C265.82 170.65 266.488 170.632 267.085 170.388L338.76 141.102L342.544 125.204L351.999 119.754L350.08 116.441Z" fill="#DA3630" fill-opacity="0.1"/>
<path d="M353.912 116.441V12.2524L349.504 16.0603C349.015 16.4828 348.698 17.0694 348.61 17.708L338.36 92.9708C338.244 93.8176 338.547 94.6685 339.169 95.2571L349.243 104.757C349.775 105.257 350.076 105.956 350.076 106.685V116.441H353.912Z" fill="#DA3630" fill-opacity="0.1"/>
<path d="M360.67 293.005H343.324L349.466 118.21H354.527L360.67 293.005Z" fill="#DA3630" fill-opacity="0.1"/>
<path d="M356.109 119.903C357.047 117.64 355.971 115.046 353.705 114.109C351.438 113.172 348.84 114.246 347.901 116.509C346.962 118.772 348.038 121.366 350.305 122.303C352.571 123.24 355.17 122.166 356.109 119.903Z" fill="#DA3630" fill-opacity="0.1"/>
<path d="M355.445 119.493C356.302 117.43 355.32 115.064 353.253 114.209C351.186 113.354 348.817 114.334 347.96 116.398C347.104 118.461 348.086 120.827 350.153 121.682C352.22 122.537 354.589 121.557 355.445 119.493Z" fill="#DA3630" fill-opacity="0.1"/>
<path d="M261.304 169.09L347.643 117.95L347.567 117.89L259.702 168.536L261.304 169.09Z" fill="#DA3630" fill-opacity="0.1"/>
<path d="M360.672 291.87H343.364V293.005H360.672V291.87Z" fill="#DA3630" fill-opacity="0.1"/>
<path d="M352.632 13.3636L353.821 114.291L353.912 114.254V12.2524L352.632 13.3636Z" fill="#DA3630" fill-opacity="0.1"/>
<path d="M442.054 170.187L354.523 121.109L354.511 121.205L442.375 171.851L442.054 170.187Z" fill="#DA3630" fill-opacity="0.1"/>
<path d="M84.9536 213.064C73.3889 213.064 63.9258 203.616 63.9258 192.07V143.747C63.9258 132.201 73.3889 122.753 84.9536 122.753C96.5183 122.753 105.981 132.201 105.981 143.747V192.07C105.979 203.616 96.5183 213.064 84.9536 213.064Z" fill="#DA3630" fill-opacity="0.1"/>
<path d="M86.1007 297.798H83.8066V156.332C83.8066 155.699 84.32 155.187 84.9537 155.187C85.5874 155.187 86.1007 155.699 86.1007 156.332V297.798Z" fill="#DA3630" fill-opacity="0.1"/>
<path d="M86.1005 175.505L79.7216 164.474C79.4047 163.925 78.7029 163.739 78.1554 164.055C77.606 164.372 77.4195 165.072 77.7363 165.619L84.1152 176.65L86.1005 175.505Z" fill="#DA3630" fill-opacity="0.1"/>
<path d="M85.7919 188.699L92.1708 177.667C92.4877 177.119 92.2992 176.42 91.7517 176.104C91.2023 175.787 90.5024 175.976 90.1856 176.522L83.8066 187.553L85.7919 188.699Z" fill="#DA3630" fill-opacity="0.1"/>
<path d="M138.648 190.07C123.963 190.07 111.947 178.074 111.947 163.413V102.05C111.947 87.3893 123.963 75.3931 138.648 75.3931C153.333 75.3931 165.349 87.3893 165.349 102.05V163.413C165.349 178.074 153.333 190.07 138.648 190.07Z" fill="#DA3630" fill-opacity="0.1"/>
<path d="M140.104 297.67H137.19V118.029C137.19 117.226 137.842 116.575 138.646 116.575C139.45 116.575 140.102 117.226 140.102 118.029V297.67H140.104Z" fill="#DA3630" fill-opacity="0.1"/>
<path d="M140.104 142.375L132.004 128.369C131.601 127.674 130.711 127.436 130.015 127.836C129.319 128.239 129.081 129.128 129.482 129.822L137.581 143.829L140.104 142.375Z" fill="#DA3630" fill-opacity="0.1"/>
<path d="M139.715 159.13L147.815 145.124C148.218 144.429 147.979 143.538 147.281 143.138C146.585 142.736 145.693 142.974 145.292 143.671L137.192 157.677L139.715 159.13Z" fill="#DA3630" fill-opacity="0.1"/>
<path d="M97.924 289.858C99.1493 288.708 99.7087 287.395 99.2255 286.472C98.6279 285.329 96.6266 285.153 94.4909 285.958C94.5992 285.679 94.7014 285.393 94.7937 285.099C95.9327 281.469 95.281 278.036 93.3418 277.429C91.4508 276.838 89.0304 279.151 87.8553 282.63C86.8827 278.644 84.3821 275.833 82.2384 276.338C80.221 276.812 79.2324 280.056 79.8801 283.773C76.9242 282.47 74.0707 282.574 73.1623 284.146C72.2218 285.773 73.6877 288.414 76.4791 290.338C75.1556 290.781 74.2451 291.591 74.1208 292.606C73.9684 293.854 75.0392 295.085 76.7398 295.846C76.6455 296.088 76.6194 296.332 76.6756 296.566C76.8521 297.319 77.8086 297.784 79.0559 297.832V297.836H79.2424C79.2464 297.836 79.2524 297.836 79.2564 297.836H95.0283V297.822C95.3351 297.782 95.5657 297.652 95.644 297.443C95.6961 297.305 95.674 297.147 95.5918 296.991C96.422 296.911 97.0477 296.583 97.2522 296.036C97.4126 295.61 97.2923 295.117 96.9594 294.635C99.1152 294.49 100.774 293.547 100.826 292.332C100.876 291.267 99.6686 290.3 97.924 289.858Z" fill="#DA3630" fill-opacity="0.1"/>
<path d="M131.126 283.165C133.38 281.051 134.409 278.636 133.521 276.937C132.422 274.832 128.74 274.51 124.811 275.992C125.012 275.481 125.198 274.955 125.369 274.412C127.462 267.737 126.267 261.423 122.698 260.306C119.219 259.219 114.771 263.473 112.609 269.869C110.818 262.538 106.222 257.371 102.282 258.296C98.5717 259.166 96.7529 265.133 97.9461 271.97C92.5096 269.573 87.2637 269.763 85.5933 272.654C83.8627 275.647 86.5578 280.504 91.6935 284.044C89.259 284.859 87.5846 286.348 87.3559 288.216C87.0752 290.51 89.0464 292.775 92.1727 294.172C92.0003 294.619 91.9542 295.067 92.0544 295.5C92.3813 296.883 94.136 297.738 96.4341 297.828V297.836H96.777C96.785 297.836 96.795 297.836 96.803 297.836H125.81V297.81C126.376 297.736 126.799 297.498 126.941 297.115C127.037 296.859 126.995 296.571 126.847 296.28C128.373 296.132 129.522 295.53 129.899 294.525C130.194 293.742 129.973 292.835 129.361 291.946C133.328 291.682 136.374 289.946 136.472 287.714C136.557 285.754 134.335 283.976 131.126 283.165Z" fill="#DA3630" fill-opacity="0.1"/>
<path d="M328.606 284.675C326.599 282.791 325.683 280.643 326.473 279.129C327.451 277.255 330.73 276.969 334.227 278.288C334.049 277.834 333.882 277.363 333.732 276.883C331.867 270.939 332.932 265.315 336.11 264.322C339.209 263.353 343.169 267.143 345.094 272.839C346.688 266.312 350.781 261.709 354.291 262.534C357.595 263.311 359.214 268.622 358.151 274.709C362.992 272.574 367.662 272.745 369.152 275.317C370.692 277.982 368.294 282.306 363.72 285.459C365.887 286.184 367.377 287.512 367.582 289.175C367.833 291.219 366.078 293.233 363.295 294.479C363.449 294.875 363.489 295.275 363.399 295.66C363.108 296.893 361.544 297.654 359.5 297.734V297.742H359.196C359.188 297.742 359.18 297.742 359.172 297.742H333.343V297.72C332.84 297.654 332.463 297.442 332.336 297.101C332.25 296.873 332.288 296.617 332.421 296.359C331.061 296.226 330.038 295.69 329.701 294.795C329.441 294.096 329.635 293.289 330.179 292.501C326.647 292.264 323.934 290.721 323.848 288.733C323.772 286.981 325.751 285.399 328.606 284.675Z" fill="#DA3630" fill-opacity="0.1"/>
<path d="M358.458 292.481C357.647 291.72 357.276 290.851 357.595 290.24C357.99 289.484 359.316 289.368 360.728 289.9C360.655 289.716 360.587 289.526 360.527 289.331C359.773 286.929 360.204 284.659 361.488 284.256C362.739 283.866 364.339 285.395 365.117 287.698C365.761 285.061 367.415 283.201 368.833 283.534C370.169 283.848 370.822 285.994 370.393 288.453C372.348 287.59 374.237 287.66 374.837 288.699C375.459 289.776 374.49 291.524 372.643 292.797C373.52 293.089 374.121 293.626 374.203 294.299C374.304 295.123 373.596 295.938 372.471 296.441C372.533 296.601 372.549 296.763 372.513 296.917C372.397 297.416 371.763 297.722 370.937 297.754V297.756H370.814C370.81 297.756 370.808 297.756 370.804 297.756H360.369V297.746C360.166 297.72 360.014 297.634 359.962 297.496C359.927 297.404 359.941 297.3 359.996 297.195C359.446 297.141 359.033 296.925 358.897 296.563C358.79 296.281 358.871 295.954 359.089 295.636C357.661 295.54 356.566 294.917 356.53 294.112C356.504 293.412 357.304 292.773 358.458 292.481Z" fill="#DA3630" fill-opacity="0.1"/>
<path d="M231.276 285.431C229.385 283.656 228.521 281.632 229.267 280.204C230.189 278.438 233.279 278.168 236.576 279.411C236.408 278.983 236.251 278.54 236.109 278.086C234.352 272.484 235.355 267.183 238.351 266.246C241.271 265.333 245.005 268.905 246.819 274.274C248.321 268.122 252.18 263.783 255.488 264.56C258.603 265.291 260.129 270.298 259.128 276.036C263.692 274.024 268.094 274.184 269.498 276.61C270.949 279.121 268.687 283.199 264.378 286.17C266.421 286.855 267.827 288.104 268.018 289.674C268.254 291.6 266.6 293.5 263.975 294.673C264.121 295.047 264.159 295.424 264.073 295.786C263.8 296.947 262.327 297.664 260.397 297.74V297.746H260.111C260.103 297.746 260.097 297.746 260.089 297.746H235.742V297.724C235.267 297.662 234.914 297.462 234.793 297.141C234.713 296.927 234.747 296.685 234.874 296.441C233.592 296.317 232.628 295.81 232.311 294.967C232.064 294.309 232.249 293.55 232.762 292.803C229.433 292.581 226.874 291.125 226.794 289.251C226.718 287.604 228.583 286.112 231.276 285.431Z" fill="#DA3630" fill-opacity="0.1"/>
<path d="M258.649 290.771C257.578 289.766 257.089 288.618 257.51 287.81C258.033 286.809 259.782 286.656 261.651 287.361C261.555 287.119 261.466 286.869 261.386 286.61C260.392 283.437 260.959 280.434 262.656 279.904C264.31 279.387 266.424 281.409 267.452 284.45C268.303 280.965 270.488 278.508 272.363 278.949C274.128 279.363 274.992 282.198 274.425 285.449C277.01 284.31 279.504 284.4 280.298 285.774C281.121 287.197 279.839 289.505 277.399 291.189C278.556 291.575 279.352 292.284 279.46 293.173C279.594 294.264 278.656 295.339 277.17 296.004C277.252 296.216 277.274 296.428 277.226 296.635C277.072 297.293 276.236 297.7 275.145 297.742V297.746H274.982C274.978 297.746 274.974 297.746 274.97 297.746H261.18V297.734C260.911 297.698 260.71 297.586 260.642 297.403C260.596 297.281 260.616 297.145 260.686 297.007C259.96 296.937 259.415 296.651 259.234 296.172C259.094 295.8 259.2 295.369 259.489 294.947C257.604 294.821 256.154 293.996 256.108 292.935C256.066 292.002 257.123 291.157 258.649 290.771Z" fill="#DA3630" fill-opacity="0.1"/>
<path d="M272.514 124.829C272.341 124.829 272.175 124.855 272.02 124.903C272.026 124.821 272.028 124.739 272.028 124.655C272.028 122.737 270.47 121.182 268.549 121.182C266.955 121.182 265.611 122.253 265.2 123.712C265.006 123.658 264.799 123.628 264.587 123.628C263.341 123.628 262.333 124.635 262.333 125.878C262.333 127.122 263.341 128.129 264.587 128.129C264.627 128.129 264.665 128.127 264.705 128.125V128.131H272.516C273.428 128.131 274.168 127.392 274.168 126.481C274.166 125.568 273.426 124.829 272.514 124.829Z" fill="#DA3630" fill-opacity="0.1"/>
<path d="M211.764 86.8927C210.824 86.8927 209.943 87.153 209.191 87.6014C208.413 84.24 205.397 81.7334 201.794 81.7334C201.477 81.7334 201.164 81.7555 200.857 81.7935C199.179 78.0577 195.421 75.457 191.055 75.457C185.123 75.457 180.317 80.2579 180.317 86.178C180.317 86.242 180.319 86.3041 180.319 86.3682C179.601 86.0298 178.799 85.8376 177.952 85.8376C174.892 85.8376 172.412 88.3141 172.412 91.3693C172.412 94.4244 174.892 96.8989 177.952 96.8989H211.764C214.531 96.8989 216.775 94.6586 216.775 91.8958C216.775 89.133 214.531 86.8927 211.764 86.8927Z" fill="#DA3630" fill-opacity="0.1"/>
<path d="M160.231 206.034C160.851 206.034 161.428 206.205 161.924 206.501C162.435 204.291 164.418 202.641 166.791 202.641C166.999 202.641 167.204 202.655 167.406 202.681C168.511 200.224 170.982 198.513 173.855 198.513C177.758 198.513 180.92 201.67 180.92 205.566C180.92 205.608 180.92 205.648 180.918 205.69C181.389 205.468 181.919 205.342 182.474 205.342C184.488 205.342 186.118 206.971 186.118 208.979C186.118 210.989 184.486 212.617 182.474 212.617H160.231C158.41 212.617 156.935 211.144 156.935 209.326C156.935 207.508 158.41 206.034 160.231 206.034Z" fill="#DA3630" fill-opacity="0.1"/>
<path d="M381.459 278.042L381.407 278.242C381.401 278.264 381.265 278.779 380.926 279.417C380.611 280.01 380.057 280.821 379.199 281.327C378.341 281.834 377.36 281.926 376.688 281.914C375.967 281.902 375.449 281.772 375.427 281.766L375.227 281.716L375.279 281.515C375.285 281.493 375.421 280.979 375.76 280.34C376.075 279.748 376.628 278.937 377.487 278.43C378.345 277.924 379.325 277.832 379.997 277.844C380.719 277.856 381.237 277.986 381.259 277.992L381.459 278.042ZM375.742 281.409C376.289 281.505 377.791 281.68 378.993 280.973C380.194 280.264 380.767 278.871 380.948 278.344C380.4 278.248 378.898 278.074 377.697 278.781C376.494 279.489 375.92 280.885 375.742 281.409Z" fill="#E4E4E4"/>
<path d="M378.595 282.831C376.686 283.55 374.561 282.599 374.561 282.599C374.561 282.599 375.529 280.482 377.436 279.764C379.345 279.045 381.471 279.996 381.471 279.996C381.471 279.996 380.504 282.114 378.595 282.831Z" fill="#F2F2F2"/>
<path d="M374.512 255.152L374.51 255.409C374.51 255.437 374.5 256.099 374.286 256.97C374.087 257.779 373.664 258.926 372.782 259.797C371.9 260.668 370.744 261.074 369.93 261.263C369.056 261.465 368.39 261.467 368.362 261.467H368.105L368.107 261.211C368.107 261.182 368.118 260.52 368.332 259.649C368.531 258.84 368.954 257.693 369.836 256.822C370.718 255.951 371.873 255.545 372.688 255.357C373.562 255.154 374.228 255.152 374.256 255.152H374.512ZM368.635 260.944C369.327 260.894 371.19 260.65 372.423 259.435C373.658 258.217 373.927 256.362 373.985 255.673C373.293 255.723 371.43 255.967 370.197 257.182C368.962 258.402 368.693 260.256 368.635 260.944Z" fill="#E4E4E4"/>
<path d="M372.511 261.797C370.428 263.241 367.572 262.736 367.572 262.736C367.572 262.736 368.098 259.891 370.183 258.448C372.267 257.004 375.122 257.509 375.122 257.509C375.122 257.509 374.595 260.354 372.511 261.797Z" fill="#F2F2F2"/>
<path d="M109.842 248.434L110.004 248.572C110.022 248.588 110.441 248.948 110.885 249.551C111.296 250.111 111.803 250.994 111.887 252.023C111.972 253.052 111.615 254.005 111.3 254.626C110.961 255.293 110.606 255.717 110.59 255.735L110.451 255.899L110.289 255.761C110.271 255.745 109.852 255.385 109.409 254.782C108.998 254.221 108.49 253.339 108.406 252.31C108.322 251.28 108.679 250.328 108.994 249.707C109.333 249.04 109.687 248.616 109.704 248.598L109.842 248.434ZM110.401 255.281C110.74 254.814 111.58 253.493 111.462 252.057C111.344 250.618 110.301 249.455 109.892 249.048C109.553 249.515 108.713 250.836 108.831 252.271C108.95 253.713 109.992 254.876 110.401 255.281Z" fill="#E4E4E4"/>
<path d="M113.022 253.267C112.83 255.369 110.981 256.918 110.981 256.918C110.981 256.918 109.443 255.061 109.635 252.958C109.828 250.856 111.677 249.307 111.677 249.307C111.677 249.307 113.213 251.165 113.022 253.267Z" fill="#F2F2F2"/>
<path d="M69.2661 272.712L69.4466 272.7C69.4666 272.698 69.9299 272.67 70.5515 272.774C71.1291 272.87 71.9532 273.105 72.609 273.673C73.2647 274.242 73.6096 275.027 73.7861 275.583C73.9746 276.182 74.0107 276.646 74.0107 276.666L74.0247 276.844L73.8443 276.856C73.8242 276.858 73.361 276.886 72.7393 276.782C72.1618 276.686 71.3376 276.452 70.6819 275.883C70.0261 275.315 69.6812 274.53 69.5047 273.974C69.3162 273.375 69.2802 272.91 69.2802 272.89L69.2661 272.712ZM73.6297 276.504C73.5595 276.026 73.2888 274.738 72.3724 273.941C71.4539 273.145 70.1424 273.057 69.6571 273.053C69.7273 273.531 69.9981 274.818 70.9145 275.615C71.8329 276.412 73.1444 276.5 73.6297 276.504Z" fill="#E4E4E4"/>
<path d="M74.0209 273.757C75.1419 275.135 74.9394 277.151 74.9394 277.151C74.9394 277.151 72.92 276.934 71.801 275.557C70.6821 274.18 70.8826 272.164 70.8826 272.164C70.8826 272.164 72.9 272.38 74.0209 273.757Z" fill="#F2F2F2"/>
<path d="M320.706 267.246L320.908 267.24C320.93 267.24 321.452 267.228 322.143 267.373C322.785 267.507 323.7 267.807 324.409 268.476C325.117 269.144 325.47 270.039 325.641 270.672C325.825 271.353 325.843 271.873 325.843 271.895L325.849 272.097L325.647 272.103C325.625 272.103 325.103 272.115 324.411 271.971C323.77 271.837 322.855 271.537 322.145 270.868C321.437 270.199 321.085 269.305 320.914 268.672C320.73 267.991 320.712 267.471 320.712 267.449L320.706 267.246ZM325.426 271.697C325.368 271.156 325.123 269.701 324.135 268.768C323.142 267.833 321.674 267.673 321.131 267.647C321.189 268.187 321.433 269.643 322.422 270.576C323.415 271.511 324.883 271.671 325.426 271.697Z" fill="#E4E4E4"/>
<path d="M325.99 268.634C327.183 270.23 326.864 272.482 326.864 272.482C326.864 272.482 324.61 272.148 323.417 270.552C322.224 268.956 322.543 266.704 322.543 266.704C322.543 266.704 324.797 267.038 325.99 268.634Z" fill="#F2F2F2"/>
<path d="M264.795 285.415H171.563L173.26 279.283L176.573 267.311L178.578 260.061L181.536 249.374L187.237 228.771L190.195 218.082L210.988 142.946H225.37L232.991 170.482L246.164 218.082L249.121 228.771L254.823 249.374L257.78 260.061L263.098 279.283L264.795 285.415Z" fill="#F46A65"/>
<path d="M264.795 285.415H171.563L173.26 279.283L176.573 267.311C241.541 263.479 232.993 170.484 232.993 170.484L263.098 279.283L264.795 285.415Z" fill="#DA3630"/>
<path d="M283.87 285.415H152.487V297.886H283.87V285.415Z" fill="#DA3630"/>
<path d="M264.795 285.415H171.563L173.26 279.283H263.098L264.795 285.415Z" fill="#A22B2C"/>
<path d="M249.121 228.771C249.121 228.771 247.168 269.907 199.829 279.317L263.101 279.283L249.121 228.771Z" fill="#B73A3B"/>
<path d="M249.122 228.771H187.237L190.195 218.083H246.164L249.122 228.771Z" fill="white"/>
<path d="M257.78 260.061H178.578L181.536 249.375H254.823L257.78 260.061Z" fill="white"/>
<path d="M253.481 285.415C253.481 285.415 236.067 298.54 171.563 297.886H283.872V285.415H253.481Z" fill="#B73A3B"/>
<path d="M303.175 302H131.353C130.186 302 129.241 301.057 129.241 299.892V299.832C129.241 298.667 130.186 297.724 131.353 297.724H303.175C304.342 297.724 305.287 298.667 305.287 299.832V299.892C305.287 301.057 304.34 302 303.175 302Z" fill="#10172D"/>
<path d="M134.609 302H106.785C105.618 302 104.674 301.057 104.674 299.892V299.832C104.674 298.667 105.618 297.724 106.785 297.724H134.609C135.776 297.724 136.721 298.667 136.721 299.832V299.892C136.721 301.057 135.776 302 134.609 302Z" fill="#10172D"/>
<path d="M94.0278 302H64.7962C63.6291 302 62.6846 301.057 62.6846 299.892V299.832C62.6846 298.667 63.6291 297.724 64.7962 297.724H94.0298C95.1969 297.724 96.1414 298.667 96.1414 299.832V299.892C96.1394 301.057 95.1949 302 94.0278 302Z" fill="#10172D"/>
<path d="M340.269 302H316.274C315.107 302 314.162 301.057 314.162 299.892V299.832C314.162 298.667 315.107 297.724 316.274 297.724H340.269C341.437 297.724 342.381 298.667 342.381 299.832V299.892C342.381 301.057 341.435 302 340.269 302Z" fill="#10172D"/>
<path d="M371.637 302H353.384C352.217 302 351.272 301.057 351.272 299.892V299.832C351.272 298.667 352.217 297.724 353.384 297.724H371.637C372.804 297.724 373.748 298.667 373.748 299.832V299.892C373.748 301.057 372.804 302 371.637 302Z" fill="#10172D"/>
</svg>
