<svg width="2310" height="682" viewBox="0 0 2310 682" fill="none" xmlns="http://www.w3.org/2000/svg">
<path fill-rule="evenodd" clip-rule="evenodd" d="M309.542 176.41L459.222 26.5362C335.23 -17.7244 168.175 -19.5714 0 123.378V295.893C8.21503 402.689 81.3288 629.424 308.064 682C397.06 673.785 584.089 585.063 620.235 295.893V198.46L309.537 513.592L90.3651 295.894L156.647 229.523L309.537 372.554L586.724 95.0069C576.178 87.0386 564.632 79.0803 552.177 71.3512L309.542 317.449V176.41Z" fill="#DA3630"/>
<path d="M859.329 533.481C853.812 533.481 849.398 532.01 846.088 529.067C843.145 525.757 841.123 521.711 840.019 516.93L774.366 163.285C774.366 162.182 774.182 161.262 773.814 160.527C773.814 159.791 773.814 159.239 773.814 158.871C773.814 155.561 774.918 152.803 777.124 150.596C779.699 148.389 782.458 147.286 785.4 147.286H833.95C843.145 147.286 848.295 150.964 849.398 158.32L895.19 408.243L944.844 246.593C945.947 243.651 947.786 240.708 950.361 237.766C953.303 234.455 957.533 232.8 963.05 232.8H992.842C998.727 232.8 1002.96 234.455 1005.53 237.766C1008.11 240.708 1009.76 243.651 1010.5 246.593L1060.7 407.692L1106.49 158.32C1107.6 150.964 1112.75 147.286 1121.94 147.286H1170.49C1173.43 147.286 1176.01 148.389 1178.22 150.596C1180.42 152.803 1181.53 155.561 1181.53 158.871C1181.53 159.239 1181.53 159.791 1181.53 160.527C1181.53 161.262 1181.34 162.182 1180.97 163.285L1115.32 516.93C1114.59 521.711 1112.56 525.757 1109.25 529.067C1105.94 532.01 1101.53 533.481 1096.01 533.481H1059.05C1053.53 533.481 1049.12 532.01 1045.81 529.067C1042.86 526.125 1040.84 522.998 1039.74 519.688L977.946 335.418L916.155 519.688C914.684 522.998 912.477 526.125 909.534 529.067C906.592 532.01 902.178 533.481 896.293 533.481H859.329Z" fill="#DA3630"/>
<path d="M1390.4 538.998C1357.66 538.998 1329.53 533.665 1305.99 522.998C1282.45 511.964 1264.06 495.229 1250.82 472.793C1237.58 449.989 1230.4 421.668 1229.3 387.83C1228.93 372.015 1228.75 356.383 1228.75 340.935C1228.75 325.487 1228.93 309.672 1229.3 293.488C1230.4 260.018 1237.76 232.065 1251.37 209.629C1264.98 187.192 1283.55 170.273 1307.09 158.871C1331 147.47 1358.77 141.769 1390.4 141.769C1422.03 141.769 1449.8 147.47 1473.71 158.871C1497.61 170.273 1516.37 187.192 1529.98 209.629C1543.59 232.065 1550.95 260.018 1552.05 293.488C1552.79 309.672 1553.15 325.487 1553.15 340.935C1553.15 356.383 1552.79 372.015 1552.05 387.83C1550.95 421.668 1543.77 449.989 1530.53 472.793C1517.29 495.229 1498.72 511.964 1474.81 522.998C1451.27 533.665 1423.13 538.998 1390.4 538.998ZM1390.4 475.552C1414.31 475.552 1433.8 468.563 1448.88 454.587C1463.96 440.242 1472.05 417.071 1473.16 385.072C1473.89 368.888 1474.26 353.992 1474.26 340.383C1474.26 326.407 1473.89 311.511 1473.16 295.695C1472.42 274.362 1468.37 257.075 1461.02 243.834C1454.03 230.226 1444.47 220.479 1432.33 214.594C1420.19 208.341 1406.21 205.215 1390.4 205.215C1374.95 205.215 1361.16 208.341 1349.02 214.594C1336.88 220.479 1327.14 230.226 1319.78 243.834C1312.79 257.075 1308.93 274.362 1308.19 295.695C1307.83 311.511 1307.64 326.407 1307.64 340.383C1307.64 353.992 1307.83 368.888 1308.19 385.072C1309.3 417.071 1317.39 440.242 1332.47 454.587C1347.55 468.563 1366.86 475.552 1390.4 475.552Z" fill="#DA3630"/>
<path d="M1638.84 533.481C1635.16 533.481 1632.04 532.194 1629.46 529.619C1626.89 527.044 1625.6 523.918 1625.6 520.24V161.078C1625.6 157.032 1626.89 153.722 1629.46 151.148C1632.04 148.573 1635.16 147.286 1638.84 147.286H1781.73C1826.24 147.286 1861.36 157.584 1887.11 178.181C1912.85 198.778 1925.73 228.754 1925.73 268.11C1925.73 295.327 1918.92 317.947 1905.31 335.97C1892.07 353.992 1874.24 367.049 1851.8 375.141L1932.35 515.826C1933.45 518.033 1934 520.056 1934 521.895C1934 525.205 1932.72 527.964 1930.14 530.171C1927.93 532.378 1925.36 533.481 1922.42 533.481H1872.21C1865.96 533.481 1861.18 531.826 1857.87 528.516C1854.56 525.205 1851.98 521.895 1850.14 518.585L1778.97 387.83H1702.29V520.24C1702.29 523.918 1701 527.044 1698.42 529.619C1696.22 532.194 1693.09 533.481 1689.05 533.481H1638.84ZM1702.29 325.487H1780.08C1802.51 325.487 1819.25 320.522 1830.28 310.591C1841.32 300.293 1846.83 285.948 1846.83 267.558C1846.83 249.168 1841.32 234.823 1830.28 224.525C1819.62 213.858 1802.88 208.525 1780.08 208.525H1702.29V325.487Z" fill="#DA3630"/>
<path d="M1975.3 533.481C1971.99 533.481 1969.23 532.378 1967.02 530.171C1964.82 527.964 1963.71 525.205 1963.71 521.895C1963.71 520.792 1963.9 519.688 1964.27 518.585C1964.63 517.481 1965 516.378 1965.37 515.275L2088.95 336.521L1973.09 165.492C1971.99 163.285 1971.44 161.078 1971.44 158.871C1971.44 155.561 1972.54 152.803 1974.75 150.596C1976.95 148.389 1979.53 147.286 1982.47 147.286H2039.3C2043.71 147.286 2047.21 148.389 2049.78 150.596C2052.35 152.803 2054.56 155.193 2056.4 157.768L2137.5 276.937L2219.15 157.768C2220.63 155.193 2222.65 152.803 2225.22 150.596C2228.17 148.389 2231.84 147.286 2236.26 147.286H2289.77C2293.08 147.286 2295.84 148.389 2298.05 150.596C2300.26 152.803 2301.36 155.561 2301.36 158.871C2301.36 161.078 2300.62 163.285 2299.15 165.492L2183.85 336.521L2307.43 515.275C2308.16 516.378 2308.71 517.481 2309.08 518.585C2309.45 519.688 2309.63 520.792 2309.63 521.895C2309.63 525.205 2308.35 527.964 2305.77 530.171C2303.57 532.378 2300.99 533.481 2298.05 533.481H2239.57C2235.15 533.481 2231.66 532.378 2229.09 530.171C2226.51 527.964 2224.49 525.757 2223.02 523.55L2134.74 398.864L2048.13 523.55C2046.65 525.757 2044.63 527.964 2042.06 530.171C2039.48 532.378 2035.8 533.481 2031.02 533.481H1975.3Z" fill="#DA3630"/>
</svg>
