<svg width="750" height="900" viewBox="0 0 750 900" fill="none" xmlns="http://www.w3.org/2000/svg">
<rect width="750" height="900" fill="#DA3630"/>
<mask id="mask0_1993_220151" style="mask-type:alpha" maskUnits="userSpaceOnUse" x="0" y="0" width="750" height="900">
<rect width="750" height="900" fill="#DA3630"/>
</mask>
<g mask="url(#mask0_1993_220151)">
<path d="M336.922 77.8955H1593.26" stroke="white" stroke-opacity="0.1" stroke-width="1.5"/>
<path d="M336.922 154.875H1593.26" stroke="white" stroke-opacity="0.1" stroke-width="1.5"/>
<path d="M336.922 231.854H1593.26" stroke="white" stroke-opacity="0.1" stroke-width="1.5"/>
<path d="M336.922 308.833H1593.26" stroke="white" stroke-opacity="0.1" stroke-width="1.5"/>
<path d="M336.922 385.812H1593.26" stroke="white" stroke-opacity="0.1" stroke-width="1.5"/>
<path d="M336.922 462.791H1593.26" stroke="white" stroke-opacity="0.1" stroke-width="1.5"/>
<path d="M336.922 539.771H1593.26" stroke="white" stroke-opacity="0.1" stroke-width="1.5"/>
<path d="M336.922 616.75H1593.26" stroke="white" stroke-opacity="0.1" stroke-width="1.5"/>
<path d="M336.922 693.729H1593.26" stroke="white" stroke-opacity="0.1" stroke-width="1.5"/>
<path d="M336.922 770.708H1593.26" stroke="white" stroke-opacity="0.1" stroke-width="1.5"/>
<path d="M336.922 847.687H1593.26" stroke="white" stroke-opacity="0.1" stroke-width="1.5"/>
<path d="M407.55 0V899.006" stroke="white" stroke-opacity="0.1" stroke-width="1.5"/>
<path d="M475.684 0V899.006" stroke="white" stroke-opacity="0.1" stroke-width="1.5"/>
<path d="M543.821 0V899.006" stroke="white" stroke-opacity="0.1" stroke-width="1.5"/>
<path d="M611.955 0V899.006" stroke="white" stroke-opacity="0.1" stroke-width="1.5"/>
<path d="M680.089 0V899.006" stroke="white" stroke-opacity="0.1" stroke-width="1.5"/>
<path d="M748.224 0V899.006" stroke="white" stroke-opacity="0.1" stroke-width="1.5"/>
<path d="M-892 77.896H1565.85" stroke="white" stroke-opacity="0.1" stroke-width="1.5"/>
<path d="M-892 154.875H364.343" stroke="white" stroke-opacity="0.1" stroke-width="1.5"/>
<path d="M-892 231.854H364.343" stroke="white" stroke-opacity="0.1" stroke-width="1.5"/>
<path d="M-892 308.833H364.343" stroke="white" stroke-opacity="0.1" stroke-width="1.5"/>
<path d="M-892 385.812H364.343" stroke="white" stroke-opacity="0.1" stroke-width="1.5"/>
<path d="M-892 462.792H364.343" stroke="white" stroke-opacity="0.1" stroke-width="1.5"/>
<path d="M-892 539.771H364.343" stroke="white" stroke-opacity="0.1" stroke-width="1.5"/>
<path d="M-892 616.75H364.343" stroke="white" stroke-opacity="0.1" stroke-width="1.5"/>
<path d="M-892 693.729H364.343" stroke="white" stroke-opacity="0.1" stroke-width="1.5"/>
<path d="M-892 770.708H364.343" stroke="white" stroke-opacity="0.1" stroke-width="1.5"/>
<path d="M-892 847.687H364.343" stroke="white" stroke-opacity="0.1" stroke-width="1.5"/>
<path d="M61.8901 0V899.006" stroke="white" stroke-opacity="0.1" stroke-width="1.5"/>
<path d="M130.025 0V899.006" stroke="white" stroke-opacity="0.1" stroke-width="1.5"/>
<path d="M198.159 0V899.006" stroke="white" stroke-opacity="0.1" stroke-width="1.5"/>
<path d="M266.294 0V899.006" stroke="white" stroke-opacity="0.1" stroke-width="1.5"/>
<path d="M336.922 0V899.006" stroke="white" stroke-opacity="0.1" stroke-width="1.5"/>
</g>
</svg>
